HIERARCHY
ROOT Hips
{
 OFFSET 0.000000 0.000000 0.000000
 CHANNELS 6 Xposition Yposition Zposition Yrotation Xrotation Zrotation
 JOINT Chest
 {
  OFFSET 0.000000 10.678932 0.006280
  CHANNELS 3 Yrotation Xrotation Zrotation
  JOINT Chest2
  {
   OFFSET 0.000000 10.491159 -0.011408
   CHANNELS 3 Yrotation Xrotation Zrotation
   JOINT Chest3
   {
    OFFSET 0.000000 9.479342 0.000000
    CHANNELS 3 Yrotation Xrotation Zrotation
    JOINT Chest4
    {
     OFFSET 0.000000 9.479342 0.000000
     CHANNELS 3 Yrotation Xrotation Zrotation
     JOINT Neck
     {
      OFFSET 0.000000 13.535332 0.000000
      CHANNELS 3 Yrotation Xrotation Zrotation
      JOINT Head
      {
       OFFSET 0.000000 8.819083 -0.027129
       CHANNELS 3 Yrotation Xrotation Zrotation
       End Site
       {
        OFFSET 0.000000 16.966594 -0.014170
       }
      }
     }
     JOINT RightCollar
     {
      OFFSET -3.012546 7.545150 0.000000
      CHANNELS 3 Yrotation Xrotation Zrotation
      JOINT RightShoulder
      {
       OFFSET -13.683099 0.000000 0.000000
       CHANNELS 3 Yrotation Xrotation Zrotation
       JOINT RightElbow
       {
        OFFSET -26.359998 0.000000 0.000000
        CHANNELS 3 Yrotation Xrotation Zrotation
        JOINT RightWrist
        {
         OFFSET -21.746691 0.000000 0.008601
         CHANNELS 3 Yrotation Xrotation Zrotation
         End Site
         {
          OFFSET -16.348058 0.000000 0.000000
         }
        }
       }
      }
     }
     JOINT LeftCollar
     {
      OFFSET 3.012546 7.545150 0.000000
      CHANNELS 3 Yrotation Xrotation Zrotation
      JOINT LeftShoulder
      {
       OFFSET 13.683099 0.000000 0.000000
       CHANNELS 3 Yrotation Xrotation Zrotation
       JOINT LeftElbow
       {
        OFFSET 26.359998 0.000000 0.000000
        CHANNELS 3 Yrotation Xrotation Zrotation
        JOINT LeftWrist
        {
         OFFSET 21.746691 0.000000 0.008601
         CHANNELS 3 Yrotation Xrotation Zrotation
         End Site
         {
          OFFSET 16.348058 0.000000 0.000000
         }
        }
       }
      }
     }
    }
   }
  }
 }
 JOINT RightHip
 {
  OFFSET -8.622479 -0.030774 -0.003140
  CHANNELS 3 Yrotation Xrotation Zrotation
  JOINT RightKnee
  {
   OFFSET 0.000000 -37.209160 -0.002630
   CHANNELS 3 Yrotation Xrotation Zrotation
   JOINT RightAnkle
   {
    OFFSET 0.000000 -37.343279 -0.058479
    CHANNELS 3 Yrotation Xrotation Zrotation
    JOINT RightToe
    {
     OFFSET 0.000000 -8.903465 15.088070
     CHANNELS 3 Yrotation Xrotation Zrotation
     End Site
     {
      OFFSET 0.000000 -1.471739 6.884388
     }
    }
   }
  }
 }
 JOINT LeftHip
 {
  OFFSET 8.622479 -0.030774 -0.003140
  CHANNELS 3 Yrotation Xrotation Zrotation
  JOINT LeftKnee
  {
   OFFSET 0.000000 -37.209160 -0.002630
   CHANNELS 3 Yrotation Xrotation Zrotation
   JOINT LeftAnkle
   {
    OFFSET 0.000000 -37.343279 -0.058479
    CHANNELS 3 Yrotation Xrotation Zrotation
    JOINT LeftToe
    {
     OFFSET 0.000000 -8.903465 15.088070
     CHANNELS 3 Yrotation Xrotation Zrotation
     End Site
     {
      OFFSET 0.000000 -1.471739 6.884388
     }
    }
   }
  }
 }
}
MOTION
Frames: 8
Frame Time: 0.150000
-12.854401 78.225100 -20.380932 -152.830173 -9.388171 -3.737679 5.487818 10.336205 1.841121 0.456220 0.872801 0.105263 0.697325 1.332387 0.163540 4.697343 8.735135 1.385709 -6.338651 14.573031 0.540962 -12.107342 -8.805822 3.440847 -5.507725 0.187457 -5.777266 13.013120 -28.294313 47.382459 37.282307 -7.763056 1.591794 -6.047776 -3.826495 -18.488963 -6.184316 -13.807144 15.182072 19.301282 -32.805974 -59.362242 -88.488782 -15.867392 6.272035 17.393761 9.472816 16.926104 -7.832886 0.314844 -15.615697 11.710061 25.590469 0.819209 -1.345839 -21.739409 12.382157 0.024034 0.599820 0.055405 -16.491437 -11.767286 31.217898 5.914161 61.085509 -0.354749 -3.286572 3.879488 -28.431028 -0.061081 -22.669768 -1.366816
-15.439559 76.133476 -17.891203 -159.301175 -6.435538 0.210956 6.538271 10.204599 3.008650 0.532578 0.901293 0.187310 0.810805 1.369367 0.288065 5.303824 8.620655 2.173314 -5.513672 12.991667 -3.369290 -9.081407 -12.084021 -4.128680 -2.539001 -0.013071 -3.272615 8.291970 -22.814678 48.478655 32.755603 -6.643244 1.856865 -4.704834 -4.342641 -19.691741 -2.276256 -13.511048 19.308102 22.590708 -33.427177 -55.237447 -85.802108 -21.662492 9.757888 16.171254 8.026267 17.274495 -6.329303 -10.376925 -20.688295 16.463512 31.142106 0.743125 0.902451 -21.859748 15.646128 -0.269096 0.611138 0.070340 -32.290831 -13.578038 18.912265 -9.250357 62.674858 -0.786097 -5.981473 -4.166606 -20.545637 -0.661109 -13.306728 -4.357788
-14.153057 77.861147 -17.086103 -141.231371 -8.686727 -6.928979 2.500222 10.624578 5.604210 0.180125 0.975086 0.493648 0.276396 1.477699 0.749678 2.048553 9.126064 4.815948 -7.921182 14.204696 0.292060 -15.015573 -9.361055 3.614200 0.929925 3.860229 -6.194649 20.291605 -27.288375 50.164027 37.399874 0.646393 -1.424057 -8.646866 -1.095725 -17.373086 -17.576205 -11.754638 17.936663 -5.205093 -41.200737 -48.050686 -88.163414 -17.232447 3.153083 18.682537 5.894878 18.728820 -8.528623 7.419067 -16.498568 -0.127459 16.231409 0.507340 -1.346252 -13.211249 17.620651 0.055559 -0.480341 -0.443589 -8.097301 -21.683447 40.904389 7.520356 60.681934 -9.115535 -20.102852 7.150962 -15.270924 -1.014573 -25.356521 7.224416
-14.024404 75.723697 -15.947815 -132.204046 -11.981452 -13.710223 1.063389 12.776165 10.025479 -0.023782 1.393383 1.163169 -0.025215 2.037227 1.700624 0.440265 9.797526 8.252074 -9.134838 11.975128 0.504218 -17.660467 -13.299651 4.814536 9.874438 14.535205 -7.965129 69.990258 -44.549977 37.034682 50.221440 14.618237 2.375523 -6.221385 -3.268996 -15.210144 -36.761478 -12.707125 13.477913 -47.435299 -41.652319 -42.914982 -91.982652 -8.745876 -21.553097 18.516878 -3.182411 11.479365 6.021813 12.003118 -6.386172 -14.622221 25.149602 -2.722845 -6.537339 -17.504593 18.763273 0.059057 -0.651995 1.440413 1.456439 -25.008365 42.767152 6.072822 64.763068 -11.261918 -5.906992 -13.990211 -10.337686 -0.528441 -9.957929 6.200438
-13.856141 76.419739 -11.549119 -144.202642 -10.580486 -10.699115 3.316060 12.578188 6.356583 0.408588 1.598352 0.629120 0.604872 2.340733 0.926017 3.354867 11.341087 4.816855 -7.418481 10.934403 1.316226 -14.868904 -15.317173 5.808504 5.672378 4.129542 -7.179327 52.965757 -41.596559 43.727674 56.105149 2.966828 4.321767 -5.502030 -5.043353 -13.381976 -25.814376 -15.538918 26.714376 -31.789758 -24.955028 -38.093042 -96.677208 -20.115494 -19.028002 11.629116 -3.530536 13.983114 -3.669367 -6.336476 -17.640770 0.355325 37.979500 0.459045 6.658065 -5.608591 15.934770 -0.378493 -9.417983 6.345276 4.595229 -20.902880 33.207343 14.153050 58.233186 -5.157359 3.283568 -22.152538 -5.542803 0.185396 0.730568 -1.242586
-10.227640 86.281491 -8.897736 -156.322797 -11.479760 -2.891128 3.206442 13.065975 0.885322 0.302226 1.290940 0.034689 0.452933 1.933076 0.054491 2.619492 10.949251 0.517503 -5.023615 10.899094 0.472894 -9.897401 -15.725505 3.150963 -5.435283 -5.035848 -10.749732 15.644173 -29.734162 35.651310 24.178455 -22.032386 -0.576236 -5.691167 -3.461702 -12.918567 -5.489762 -14.034846 34.839073 -1.727254 -20.064017 -35.327393 -23.761727 -26.129311 -0.653588 3.269535 9.723778 16.599015 -7.838947 -17.757464 -14.964477 1.580591 60.125393 1.813546 11.873887 6.826865 16.853134 -0.450087 -6.800981 -2.905492 0.874711 -0.669360 19.598762 29.029328 20.939091 -0.136570 5.510788 12.336382 -10.414976 -0.320948 -12.195083 2.184548
-1.778486 84.390602 -7.173685 -150.237844 0.555668 0.491987 -0.003280 6.170550 -0.878683 -0.041584 0.393427 -0.097624 -0.066779 0.628719 -0.156157 -0.779044 6.511183 -1.661894 -3.978576 7.372838 0.866764 -8.362167 -22.304561 3.774260 -3.156773 -6.292221 -19.218306 -10.675839 -24.306999 18.819617 -0.656211 -29.787849 4.874504 -4.269791 -1.405686 -14.846922 5.589777 -10.151181 33.065883 9.792256 -14.569037 -26.894340 -4.049928 -22.759931 -2.068700 1.322517 12.897419 16.993401 -4.741267 -9.214421 -6.052910 -5.318848 36.064935 3.922657 -1.617463 -6.573621 -3.126162 -1.061008 -17.121711 5.407567 -12.680619 -36.807031 30.178568 -84.476932 88.013053 -98.018068 2.732222 -12.840340 -8.152613 -0.124086 -3.084853 -1.317489
0.576417 85.572150 -4.419800 -161.956902 -3.375169 1.832558 1.011259 6.081077 -2.092334 0.052025 0.268911 -0.057618 0.084204 0.435970 -0.093284 1.008042 5.480520 -1.127352 -1.594544 8.651107 1.040984 -3.646487 -20.063492 2.829355 -4.336922 1.401896 -2.989395 10.850439 -18.908314 56.055740 8.420825 -18.083266 4.280515 -1.620642 -4.896278 -14.872808 4.553502 11.109936 9.704697 2.896514 -11.510808 -67.108920 -7.058381 -9.439892 2.687270 8.492738 7.113312 15.557399 -1.349184 5.520112 -4.071555 -0.353695 7.746339 1.174361 -4.061739 -8.085966 -3.451264 0.031046 0.207584 0.195058 -11.987369 -11.384163 2.873041 16.637465 49.764231 -1.080035 0.212195 -8.154117 -15.081653 0.851158 3.135704 1.170119
